<?xml version="1.0" encoding="UTF-8"?>
<svg version="1.1" xmlns="http://www.w3.org/2000/svg" width="3290" height="394">
<path d="M0 0 C0.77167007 -0.00540298 1.54334015 -0.01080597 2.33839417 -0.01637268 C4.86914355 -0.02879991 7.39874193 -0.01241152 9.92944336 0.00561523 C11.6986853 0.00546012 13.46792757 0.00396911 15.23716736 0.00120544 C18.93658557 -0.0001758 22.63561479 0.01233455 26.33496094 0.03515625 C31.06836286 0.06356094 35.80111993 0.06079426 40.53456974 0.04806614 C44.18494644 0.04110029 47.83517498 0.04890823 51.48553276 0.06132317 C53.23057931 0.06582739 54.97564182 0.06618348 56.72068977 0.06225777 C59.16177939 0.05933607 61.60199039 0.07589672 64.04296875 0.09765625 C65.11620392 0.09090378 65.11620392 0.09090378 66.21112061 0.08401489 C71.52822536 0.1624698 75.69564338 1.35579984 79.60473633 5.06567383 C83.7502589 10.79676008 86.96081199 16.92680055 90.13311768 23.23962402 C91.76655623 26.48884575 93.42537868 29.72509124 95.08178711 32.96264648 C95.41244171 33.61031982 95.74309631 34.25799316 96.08377075 34.92529297 C98.98301544 40.58975989 102.00626955 46.18101876 105.08178711 51.75170898 C109.32150032 59.44463376 113.42574628 67.19742298 117.45678711 75.00170898 C121.50926021 82.84718158 125.63575946 90.64113882 129.89428711 98.37670898 C135.00456148 107.66195552 139.89180519 117.05245652 144.74560547 126.47387695 C148.39260863 133.534957 152.12257307 140.54066263 155.95678711 147.50170898 C160.41949913 155.60379846 164.72052433 163.77902172 168.95678711 172.00170898 C173.25716604 180.34801352 177.62323001 188.64773454 182.14428711 196.87670898 C186.22313503 204.30496585 190.25331048 211.75584022 194.20678711 219.25170898 C194.685271 220.15195801 195.16375488 221.05220703 195.65673828 221.97973633 C196.30799683 223.22037842 196.30799683 223.22037842 196.97241211 224.48608398 C197.356875 225.21537109 197.74133789 225.9446582 198.13745117 226.69604492 C198.95678711 228.50170898 198.95678711 228.50170898 198.95678711 230.50170898 C199.61678711 230.50170898 200.27678711 230.50170898 200.95678711 230.50170898 C201.18108398 229.70635742 201.40538086 228.91100586 201.63647461 228.09155273 C203.3378447 223.4656382 205.67239605 219.35456068 208.08178711 215.06420898 C213.2165752 205.79623344 218.12667632 196.43033909 222.95678711 187.00170898 C227.98908512 177.18685296 233.11796595 167.44385633 238.44897461 157.78686523 C242.58589499 150.26012331 246.53181343 142.64015005 250.45678711 135.00170898 C254.833045 126.48501798 259.26622679 118.01032644 263.89428711 109.62670898 C268.74690075 100.83382596 273.37401889 91.93696367 277.95678711 83.00170898 C282.98585269 73.19628578 288.10555035 63.45947975 293.43579102 53.81323242 C298.3776273 44.82838043 303.05293401 35.70789353 307.70703125 26.5715332 C319.63996161 3.27398415 319.63996161 3.27398415 327.95678711 0.50170898 C330.46488303 0.39559719 332.94560445 0.34447897 335.45410156 0.34057617 C336.59610016 0.33312881 336.59610016 0.33312881 337.76116943 0.32553101 C340.2808116 0.31092181 342.80039079 0.30410919 345.32006836 0.29858398 C347.07260642 0.29283117 348.82514447 0.28707345 350.5776825 0.28131104 C354.25377699 0.27080435 357.92984964 0.26495962 361.60595703 0.26147461 C366.31025576 0.25599293 371.0142646 0.23197053 375.71847248 0.20350266 C379.33964372 0.18485331 382.96074548 0.17966944 386.58196068 0.17813873 C388.31586478 0.17511647 390.04976777 0.16710233 391.78362465 0.15395355 C394.21306858 0.13684607 396.64180888 0.13878463 399.07128906 0.14526367 C400.13992439 0.1314415 400.13992439 0.1314415 401.23014832 0.11734009 C406.54493693 0.16160798 410.63377776 1.3828596 414.60131836 5.00170898 C417.878546 9.21058997 419.08162614 11.9946931 419.08262825 17.2707634 C419.08653987 18.75239743 419.08653987 18.75239743 419.09053051 20.26396346 C419.08718443 21.89646714 419.08718443 21.89646714 419.08377075 23.56195068 C419.08533074 24.71654415 419.08689073 25.87113762 419.088498 27.06071877 C419.09180476 30.27298596 419.09060293 33.4852156 419.08751178 36.69748187 C419.08525394 40.16288121 419.08874025 43.62827538 419.0914917 47.09367371 C419.09595267 53.90231028 419.09496904 60.71093587 419.09207906 67.51957288 C419.08981521 73.08723011 419.0895168 78.65488426 419.09060287 84.22254181 C419.09075611 85.01712664 419.09090934 85.81171147 419.09106722 86.63037463 C419.09138701 88.24564995 419.09171123 89.86092528 419.09203981 91.47620061 C419.09489836 106.66764424 419.09160746 121.85908186 419.08623944 137.0505245 C419.08182258 149.94392372 419.08250353 162.83731386 419.0871582 175.73071289 C419.09258775 190.77697309 419.09456978 205.82322791 419.09154594 220.86948895 C419.09122751 222.49696938 419.09091314 224.12444981 419.09060287 225.75193024 C419.0904486 226.55206472 419.09029432 227.3521992 419.09013537 228.17658018 C419.08929098 233.6743901 419.09071529 239.17219642 419.09308243 244.6700058 C419.10052883 264.22285694 419.06720375 283.77508871 418.96748316 303.32770038 C418.95654837 305.55023377 418.94679077 307.77276994 418.93727398 309.99530983 C418.90101908 318.21647998 418.84959578 326.43721713 418.76207634 334.65801664 C418.72487304 338.15347237 418.69341541 341.64869639 418.67848039 345.14432478 C418.66162889 348.96337512 418.61322192 352.78165721 418.56149292 356.60040283 C418.5606812 357.72453661 418.55986948 358.8486704 418.55903316 360.00686884 C418.4449847 366.14007083 418.0907572 369.85290112 413.95678711 374.50170898 C409.48259222 378.2601032 406.36501832 379.00493463 400.57788086 379.01928711 C399.50837692 379.02980103 399.50837692 379.02980103 398.41726685 379.04052734 C396.07586964 379.05803783 393.73569518 379.04651055 391.39428711 379.03295898 C389.75813568 379.03565593 388.12198581 379.03954003 386.48583984 379.04455566 C383.06291387 379.05044126 379.64040647 379.04191842 376.2175293 379.02319336 C371.8393166 379.00040395 367.46208482 379.01353213 363.08390808 379.03748322 C359.7071601 379.05196685 356.33064304 379.04732355 352.95388794 379.03697205 C351.34001549 379.03431183 349.72612178 379.03754966 348.11227417 379.04689026 C345.85285246 379.0570988 343.59499885 379.04149754 341.33569336 379.01928711 C340.05251221 379.01610474 338.76933105 379.01292236 337.44726562 379.00964355 C332.0819922 378.22888876 329.17628627 376.01756075 325.81492233 371.83934593 C323.67768285 368.00037374 323.39057391 365.03148269 323.43780518 360.75686646 C323.4265533 359.61599085 323.4265533 359.61599085 323.41507411 358.45206726 C323.3948397 355.91380948 323.40289094 353.37644863 323.41088867 350.83813477 C323.40215133 349.01460387 323.39166498 347.19108064 323.37956238 345.36756897 C323.35170156 340.42380605 323.34829772 335.48029329 323.34928226 330.53646326 C323.34615325 325.36742201 323.32053525 320.19849344 323.29730225 315.0295105 C323.25673792 305.24428004 323.23640049 295.45911624 323.22332835 285.67381465 C323.2074598 274.53235247 323.16904475 263.39100372 323.12873507 252.24960732 C323.04633017 229.33367928 322.99224171 206.41775436 322.95678711 183.50170898 C320.76116397 187.48111149 318.56556011 191.46052464 316.36997318 195.43994713 C315.6249387 196.79028922 314.8798992 198.14062854 314.13485432 199.49096489 C310.22932253 206.5694477 306.32397732 213.6480319 302.42163086 220.72827148 C295.50409596 233.27758208 288.56630114 245.81520474 281.60107422 258.33813477 C277.03573783 266.5498773 272.49187032 274.77323997 267.95678711 283.00170898 C262.19403104 293.45767143 256.40732702 303.9000007 250.60351562 314.33325195 C246.69532534 321.36235642 242.80296504 328.39993324 238.92333984 335.44482422 C237.58030029 337.88322632 236.23473814 340.32020682 234.88671875 342.75585938 C234.22252948 343.95627372 233.55838543 345.15671308 232.89428711 346.35717773 C232.56750473 346.94783524 232.24072235 347.53849274 231.90403748 348.14704895 C229.92914742 351.72277348 227.97565585 355.30925673 226.03831482 358.90545654 C224.49999049 361.75530869 222.94504898 364.59611059 221.39428711 367.43920898 C220.84699951 368.46933105 220.29971191 369.49945313 219.73583984 370.56079102 C216.24096592 376.92590035 212.59272711 382.18373898 205.95678711 385.50170898 C203.41772461 385.77514648 203.41772461 385.77514648 200.33178711 385.87670898 C199.32889648 385.92569336 198.32600586 385.97467773 197.29272461 386.02514648 C192.13711608 385.21618683 187.92462735 382.96114835 184.62573242 378.83813477 C183.43519771 376.89422299 182.4041826 374.92028666 181.39428711 372.87670898 C180.54408951 371.257502 179.6924323 369.63906087 178.83959961 368.02124023 C178.38230469 367.13903809 177.92500977 366.25683594 177.45385742 365.34790039 C174.65796565 360.03242318 171.69934347 354.80651604 168.76928711 349.56420898 C167.47177164 347.22992592 166.17484034 344.89532763 164.87866211 342.56030273 C162.32797879 337.96837782 159.77561741 333.37738847 157.22241211 328.78686523 C150.44174482 316.59311281 143.68153198 304.38841485 136.94680786 292.16925049 C132.1337521 283.43726453 127.30328274 274.71519797 122.45678711 266.00170898 C117.2712664 256.67868859 112.10643531 247.34456643 106.95678711 238.00170898 C101.6354316 228.34921732 96.30502233 218.70183689 90.95678711 209.06420898 C90.37026367 208.00588867 89.78374023 206.94756836 89.17944336 205.85717773 C86.06762651 200.25449615 82.92188007 194.67280213 79.73803711 189.11083984 C79.37226562 188.47132133 79.00649414 187.83180283 78.62963867 187.17290497 C77.73894534 185.6156925 76.84790303 184.05867966 75.95678711 182.50170898 C75.96139607 183.44777512 75.96600504 184.39384125 75.97075367 185.36857605 C76.08178527 208.39573382 76.16393187 231.42285685 76.21584797 254.45022583 C76.24162199 265.58613605 76.27675739 276.72186935 76.33398438 287.85766602 C76.38384365 297.56441333 76.41608395 307.27103251 76.42722958 316.97790432 C76.43374402 322.11697185 76.44903837 327.25567283 76.48543739 332.3946228 C76.5194366 337.23407823 76.52983208 342.07301697 76.52232552 346.91258049 C76.5236983 348.6862869 76.53360743 350.46001102 76.55281448 352.23361397 C76.72313138 368.77569504 76.72313138 368.77569504 72.42008495 374.15178585 C67.88575466 378.33480121 63.6700839 378.88014161 57.66967773 378.90576172 C56.61480415 378.91605659 56.61480415 378.91605659 55.53862 378.92655945 C53.22988301 378.94475844 50.92182995 378.94100061 48.61303711 378.93530273 C46.99930604 378.93986742 45.38557691 378.94517384 43.77185059 378.95118713 C40.39607831 378.9601043 37.0205428 378.95771058 33.64477539 378.94775391 C29.32712769 378.93625754 25.01029705 378.95649238 20.69275665 378.98567104 C17.36235398 379.00404926 14.03214661 379.00373755 10.70170593 378.99803352 C9.1101517 378.99788055 7.51858403 379.00390503 5.92707825 379.016325 C3.69883459 379.03126729 1.47209431 379.02053697 -0.75610352 379.00341797 C-2.02151978 379.0032518 -3.28693604 379.00308563 -4.59069824 379.00291443 C-9.79404227 378.24753911 -12.84636486 375.79559875 -16.35571289 372.00170898 C-19.12646949 367.89688439 -19.16926084 364.39028619 -19.17743397 359.50052166 C-19.18189181 358.26375232 -19.18634966 357.02698299 -19.19094259 355.75273579 C-19.19085329 354.37801912 -19.19066344 353.00330246 -19.19038391 351.62858582 C-19.1936835 350.16994212 -19.19740927 348.71129933 -19.20152539 347.25265771 C-19.21154232 343.23905089 -19.21526168 339.22545902 -19.2179147 335.21184146 C-19.22181855 330.8852143 -19.2313967 326.55859898 -19.24012756 322.23197937 C-19.25988757 311.78191341 -19.26995666 301.33184649 -19.27885535 290.88176653 C-19.28323818 285.96195679 -19.28860493 281.04214813 -19.29384422 276.12233925 C-19.31085448 259.77098279 -19.32534977 243.419627 -19.33259296 227.06826305 C-19.33450288 222.82529385 -19.33642321 218.58232465 -19.33837891 214.33935547 C-19.33886265 213.28477602 -19.33934639 212.23019657 -19.33984479 211.14366017 C-19.34814933 194.051114 -19.37349432 176.95863772 -19.40595958 159.86612209 C-19.43901041 142.32251772 -19.45703985 124.77894891 -19.46023721 107.23531324 C-19.46240391 97.3831364 -19.47117628 87.53106155 -19.49669838 77.67891502 C-19.51837821 69.29059596 -19.52646913 60.90240365 -19.5167316 52.51405974 C-19.51217927 48.23367742 -19.51412716 43.95355677 -19.53349304 39.67321014 C-19.55107085 35.75427482 -19.55017115 31.83579313 -19.53459575 27.91685335 C-19.53221148 26.49962479 -19.53658564 25.08236527 -19.5484244 23.66518416 C-19.6527081 10.35675426 -19.6527081 10.35675426 -15.04321289 4.50170898 C-10.7643118 0.47903005 -5.69664292 -0.07719355 0 0 Z " fill="#FFFFFF" transform="translate(1464.043212890625,7.498291015625)"/>
<path d="M0 0 C18.58580224 17.2742396 25.51516364 42.91640121 26.5078125 67.515625 C27.28758797 99.69162337 17.05475426 129.880835 -5.1315918 153.47436523 C-6.07988915 154.46507741 -7.03116437 155.45294752 -7.98535156 156.43798828 C-9.41347013 157.91721539 -10.81821616 159.41628316 -12.22265625 160.91796875 C-22.29406615 171.5106696 -34.09062767 180.11455898 -46.41796875 187.921875 C-45.5465625 188.39496094 -44.67515625 188.86804688 -43.77734375 189.35546875 C-5.68028279 210.36432298 16.25672346 243.73700105 28.65917969 284.72314453 C44.43322555 339.39815748 44.43322555 339.39815748 38.01953125 352.171875 C37.72949219 352.79578125 37.43945312 353.4196875 37.140625 354.0625 C33.88865379 357.9420446 29.8955058 359.73514054 25.00926208 360.42980957 C23.74606644 360.43299194 22.48287079 360.43617432 21.18139648 360.43945312 C20.12630386 360.44996704 20.12630386 360.44996704 19.04989624 360.46069336 C16.74639312 360.47816521 14.44413855 360.46669187 12.140625 360.453125 C10.52832302 360.45582275 8.91602263 360.45970753 7.3037262 360.46472168 C3.93385238 360.47060177 0.56440421 360.4621012 -2.80541992 360.44335938 C-7.11522769 360.42055185 -11.42403994 360.43371302 -15.73381138 360.45764923 C-19.05994615 360.47213216 -22.38584646 360.46749021 -25.71198845 360.45713806 C-27.30074114 360.4544786 -28.88951543 360.45771299 -30.47824287 360.46705627 C-32.70164181 360.47726581 -34.92344766 360.46166328 -37.14672852 360.43945312 C-38.40912857 360.43627075 -39.67152863 360.43308838 -40.97218323 360.42980957 C-46.13112517 359.66934292 -49.18588537 357.22544445 -52.70703125 353.5 C-54.52010634 350.76796904 -55.17568995 348.8745679 -55.79296875 345.671875 C-56.15455078 343.96257812 -56.15455078 343.96257812 -56.5234375 342.21875 C-56.66056152 341.55552734 -56.79768555 340.89230469 -56.93896484 340.20898438 C-64.07312154 306.14538605 -74.31315911 272.45949686 -104.28515625 251.9609375 C-120.82798806 241.69451884 -140.01045023 237.40772961 -159.18359375 235.51171875 C-165.97970133 234.27233198 -169.54461598 231.34456887 -173.41796875 225.921875 C-174.48701156 222.76138993 -174.56097902 219.7752364 -174.5949707 216.45410156 C-174.61422356 214.81154388 -174.61422356 214.81154388 -174.63386536 213.13580322 C-174.64125229 211.95661316 -174.64863922 210.7774231 -174.65625 209.5625 C-174.66432175 208.34415466 -174.67239349 207.12580933 -174.68070984 205.87054443 C-174.69453888 203.29164041 -174.7052663 200.71271816 -174.71313477 198.13378906 C-174.73034212 194.20081701 -174.77424042 190.26868675 -174.81835938 186.3359375 C-174.82848717 183.82813117 -174.837003 181.32031771 -174.84375 178.8125 C-174.86125809 177.64140686 -174.87876617 176.47031372 -174.89680481 175.26373291 C-174.87549065 167.19399488 -173.82732849 161.73233589 -168.29296875 155.546875 C-165.5742211 154.01019155 -163.88285169 153.5082204 -160.87109375 152.95703125 C-159.98083496 152.7878418 -159.09057617 152.61865234 -158.17333984 152.44433594 C-157.26406738 152.27192383 -156.35479492 152.09951172 -155.41796875 151.921875 C-129.97212213 146.73527234 -109.03355732 137.30834863 -90.41796875 118.921875 C-89.76570313 118.34179688 -89.1134375 117.76171875 -88.44140625 117.1640625 C-77.00486701 106.77195607 -70.20568218 91.94231038 -69.3828125 76.62890625 C-69.43138938 72.88848669 -69.85948486 70.33569684 -71.41796875 66.921875 C-78.81066353 62.17221622 -92.27262113 64.08256948 -100.57421875 65.5390625 C-114.96388487 69.01349043 -127.56828523 75.91381954 -138.41796875 85.921875 C-139.04832031 86.47230469 -139.67867187 87.02273437 -140.328125 87.58984375 C-163.39440497 108.86966924 -173.5739475 144.16737063 -178.66796875 173.984375 C-178.81911133 174.86770508 -178.97025391 175.75103516 -179.12597656 176.66113281 C-179.61368151 179.7425914 -180.02052734 182.82733582 -180.41796875 185.921875 C-180.50239731 186.57102057 -180.58682587 187.22016613 -180.67381287 187.88898277 C-182.64485836 203.65239883 -182.63438087 219.37191752 -182.50716782 235.2260704 C-182.46992638 239.88393025 -182.45122017 244.54176238 -182.43533325 249.19973755 C-182.38749625 262.42609949 -182.31486801 275.65227054 -182.22607422 288.87841797 C-182.17692268 296.22380607 -182.14224501 303.56912444 -182.12295544 310.91465294 C-182.10993322 315.5401692 -182.07896528 320.16509702 -182.03432059 324.79041076 C-182.01080241 327.66205057 -182.00412293 330.53354943 -182.00212479 333.40527725 C-181.99581239 335.36117731 -181.96949708 337.3169811 -181.94250488 339.27270508 C-181.95755736 346.04823607 -182.24817093 350.46939081 -186.41796875 355.921875 C-192.88826958 361.54683285 -201.04500542 360.50319431 -209.16796875 360.453125 C-210.71061446 360.4558233 -212.25325851 360.45970852 -213.79589844 360.46472168 C-217.02034791 360.47060094 -220.24435248 360.46210517 -223.46875 360.44335938 C-227.58790505 360.42057014 -231.70601742 360.43370177 -235.82513428 360.45764923 C-239.0080542 360.47215021 -242.19072967 360.4674817 -245.37365723 360.45713806 C-246.89180629 360.45448261 -248.40997804 360.45769869 -249.92810059 360.46705627 C-264.96472622 360.53941582 -264.96472622 360.53941582 -270.41796875 355.921875 C-274.00549766 351.39509706 -274.95596745 348.25429187 -275.15888977 342.51277161 C-275.20173771 341.46549447 -275.20173771 341.46549447 -275.24545127 340.39706022 C-275.3259311 338.23860544 -275.37680687 336.08140967 -275.41796875 333.921875 C-275.44513662 332.66065008 -275.4723045 331.39942516 -275.50029564 330.09998131 C-275.55364306 326.22220944 -275.56485199 322.34554746 -275.56323242 318.4675293 C-275.56623655 316.99801043 -275.56964187 315.52849233 -275.57341003 314.05897522 C-275.58214354 310.11087611 -275.58458407 306.16279876 -275.58522582 302.21469092 C-275.58594433 299.72239259 -275.58809386 297.23009951 -275.59072304 294.73780251 C-275.59995316 285.96736944 -275.60406232 277.19695143 -275.60327148 268.42651367 C-275.602742 261.26340473 -275.60972164 254.10035079 -275.6237793 246.93725586 C-275.7718364 169.71945794 -275.7718364 169.71945794 -273.41796875 134.921875 C-273.34226654 133.73626984 -273.26656433 132.55066467 -273.18856812 131.32913208 C-272.76451107 124.74759922 -272.25545393 118.17820708 -271.66796875 111.609375 C-271.58526733 110.66181335 -271.50256592 109.71425171 -271.4173584 108.73797607 C-268.74875491 78.40824714 -264.55527073 48.28362468 -259.81140137 18.21478271 C-259.46867774 16.03791873 -259.13014342 13.86039061 -258.79602051 11.68218994 C-258.32863661 8.65521947 -257.84124337 5.63216903 -257.34765625 2.609375 C-257.21235504 1.71467499 -257.07705383 0.81997498 -256.93765259 -0.10183716 C-255.84586701 -6.57199303 -253.83448933 -10.89736253 -248.85546875 -15.390625 C-244.82354536 -18.18195658 -241.648447 -18.21573414 -236.85449219 -18.25512695 C-235.86120659 -18.26498375 -235.86120659 -18.26498375 -234.84785461 -18.27503967 C-232.6576831 -18.29473942 -230.46758011 -18.30642877 -228.27734375 -18.31640625 C-227.15270596 -18.32251954 -227.15270596 -18.32251954 -226.00534821 -18.32875633 C-222.03563209 -18.34960454 -218.0659504 -18.36391071 -214.09619141 -18.37329102 C-210.00618159 -18.38434318 -205.91671765 -18.41873225 -201.82690048 -18.45846272 C-198.67320784 -18.48467281 -195.51964432 -18.49298678 -192.36585236 -18.49657249 C-190.85883148 -18.50142842 -189.35181599 -18.51301406 -187.84490204 -18.53161049 C-178.3933675 -18.64098443 -172.03042147 -18.5723097 -164.98046875 -11.703125 C-162.51525221 -5.98382263 -163.11520707 -0.21745905 -163.41796875 5.921875 C-162.56976562 5.2928125 -161.7215625 4.66375 -160.84765625 4.015625 C-114.73525815 -29.81918923 -45.99806072 -39.53306672 0 0 Z " fill="#FFFFFF" transform="translate(1377.41796875,26.078125)"/>
<path d="M0 0 C0.68169754 -0.0065712 1.36339508 -0.0131424 2.06575012 -0.01991272 C4.32085283 -0.03961555 6.57588897 -0.05130244 8.83105469 -0.0612793 C9.60287834 -0.06535482 10.374702 -0.06943035 11.16991425 -0.07362938 C15.25633983 -0.09447876 19.34273197 -0.10878451 23.42919922 -0.11816406 C27.64027022 -0.12921727 31.85081118 -0.16360733 36.0616951 -0.20333576 C39.30803376 -0.22954076 42.55424695 -0.23785938 45.80068207 -0.24144554 C47.35235925 -0.24630266 48.90403115 -0.25789174 50.45560455 -0.27648354 C65.61074739 -0.44677165 65.61074739 -0.44677165 71.25292969 4.17700195 C75.03499487 9.05387548 76.37880702 12.60009946 76.3731842 18.70085144 C76.37525045 20.41994233 76.37525045 20.41994233 76.37735844 22.17376232 C76.37196127 24.06871677 76.37196127 24.06871677 76.36645508 26.00195312 C76.36614877 27.36399234 76.36628219 28.72603172 76.36682034 30.08807087 C76.36704628 33.73853951 76.36124658 37.38897543 76.3542099 41.03943634 C76.34851882 44.46375126 76.34824699 47.88805819 76.34753418 51.31237793 C76.34228495 61.32975695 76.32832382 71.34712986 76.31542969 81.36450195 C76.29480469 103.74262695 76.27417969 126.12075195 76.25292969 149.17700195 C128.06292969 148.84700195 179.87292969 148.51700195 233.25292969 148.17700195 C233.46302774 103.68951888 233.46302774 103.68951888 233.64086914 59.2019043 C233.6907959 50.59619141 233.6907959 50.59619141 233.71794128 46.56704712 C233.73587274 43.75396048 233.74548286 40.94097765 233.75004578 38.12783813 C233.75614325 34.53706557 233.77650086 30.94663711 233.80709112 27.35599256 C233.82004042 25.41971879 233.81844001 23.48336438 233.81623554 21.54704857 C233.8889939 14.86766268 234.03960496 9.69994391 238.75292969 4.5324707 C243.70136225 0.6793943 246.81470527 0.04936177 253 0 C253.68169754 -0.0065712 254.36339508 -0.0131424 255.06575012 -0.01991272 C257.32085283 -0.03961555 259.57588897 -0.05130244 261.83105469 -0.0612793 C262.60287834 -0.06535482 263.374702 -0.06943035 264.16991425 -0.07362938 C268.25633983 -0.09447876 272.34273197 -0.10878451 276.42919922 -0.11816406 C280.64027022 -0.12921727 284.85081118 -0.16360733 289.0616951 -0.20333576 C292.30803376 -0.22954076 295.55424695 -0.23785938 298.80068207 -0.24144554 C300.35235925 -0.24630266 301.90403115 -0.25789174 303.45560455 -0.27648354 C318.61074739 -0.44677165 318.61074739 -0.44677165 324.25292969 4.17700195 C328.13927801 9.18834584 329.37705071 12.78225796 329.38435745 19.04231739 C329.3881986 20.27422898 329.39203974 21.50614057 329.39599729 22.77538282 C329.395217 24.14980056 329.39433821 25.52421824 329.39337158 26.89863586 C329.39595451 28.35300421 329.39896747 29.80737184 329.40237498 31.26173848 C329.41045669 35.26813586 329.4122352 39.27451534 329.41297245 43.28091991 C329.41482096 47.59800059 329.42236725 51.91507192 329.42910767 56.23214722 C329.44269961 65.67628484 329.44871699 75.12041822 329.45311832 84.56456399 C329.45587917 90.45912723 329.46011622 96.35368883 329.4646225 102.24825096 C329.47681606 118.56182534 329.48711535 134.8753984 329.49049759 151.18897724 C329.49071716 152.23342928 329.49093672 153.27788131 329.49116294 154.35398341 C329.49138122 155.400963 329.4915995 156.44794258 329.49182439 157.52664882 C329.49226786 159.64829973 329.49271442 161.76995065 329.49316406 163.89160156 C329.49338549 164.94401821 329.49360692 165.99643486 329.49383506 167.08074292 C329.49778413 184.13844858 329.51524108 201.19611156 329.53852358 218.25380073 C329.56222288 235.75781847 329.57469878 253.26181477 329.57586551 270.76584882 C329.57678304 280.5973084 329.58255517 290.42871235 329.60068512 300.26015663 C329.6160669 308.63094807 329.62121794 317.0016667 329.61294702 325.37246958 C329.60903374 329.64457576 329.61000305 333.9165352 329.62400436 338.18862343 C329.63670271 342.09884734 329.63558178 346.00881366 329.62341365 349.91903701 C329.62144958 351.33425578 329.62456778 352.74949255 329.63325801 354.164686 C329.64432044 356.08781525 329.63508896 358.0110292 329.62486649 359.93416309 C329.62546357 361.00258877 329.62606066 362.07101444 329.62667584 363.17181665 C329.1066085 367.35352856 327.60403065 370.72963935 324.71777344 373.8215332 C319.78545822 377.59330366 317.63068616 378.30602453 311.41992188 378.35400391 C310.71725693 378.3605751 310.01459198 378.3671463 309.29063416 378.37391663 C306.96035661 378.39366003 304.6301436 378.40531563 302.29980469 378.4152832 C301.50375069 378.41935873 300.70769669 378.42343426 299.88751984 378.42763329 C295.67257445 378.44850036 291.45766166 378.46279822 287.24267578 378.47216797 C282.89360176 378.48322244 278.54504079 378.51760895 274.19614792 378.55733967 C270.8486233 378.5835173 267.50122057 378.59186089 264.1536026 378.59544945 C262.55086052 378.60031396 260.94812383 378.6119242 259.34548187 378.63048744 C257.09774988 378.6549003 254.85134028 378.65391053 252.60351562 378.64697266 C250.68729401 378.65577202 250.68729401 378.65577202 248.73236084 378.66474915 C243.47792999 377.92818222 240.43437288 375.48616873 236.94042969 371.61450195 C234.41622039 367.96842186 234.12847447 365.24142025 234.13267517 360.91889954 C234.13060893 359.28797222 234.13060893 359.28797222 234.12850094 357.62409687 C234.13209905 356.42637244 234.13569715 355.22864801 234.1394043 353.99462891 C234.13928376 352.71559535 234.13916323 351.43656179 234.13903904 350.11876965 C234.13881314 346.65684041 234.14461191 343.19494569 234.15164948 339.7330246 C234.15734149 336.48530675 234.15761244 333.23759041 234.1583252 329.98986816 C234.16357396 320.48974152 234.1775351 310.9896213 234.19042969 301.48950195 C234.21105469 280.26637695 234.23167969 259.04325195 234.25292969 237.17700195 C182.11292969 237.17700195 129.97292969 237.17700195 76.25292969 237.17700195 C76.37166406 278.98675235 76.37166406 278.98675235 76.52319336 320.79638672 C76.53674316 328.88977051 76.53674316 328.88977051 76.53926086 332.68077087 C76.54386251 335.32396893 76.55327626 337.96673449 76.56965637 340.60984802 C76.59416175 344.6174215 76.59464731 348.62467601 76.59350586 352.63232422 C76.60430018 353.80628785 76.61509451 354.98025148 76.62621593 356.18978977 C76.60042558 362.95738451 76.39029946 368.61652633 71.71777344 373.91918945 C66.78258734 377.57955766 64.58762082 378.30636706 58.43579102 378.35400391 C57.73473236 378.3605751 57.03367371 378.3671463 56.31137085 378.37391663 C53.98589981 378.39366261 51.6604935 378.40531717 49.33496094 378.4152832 C48.54015509 378.41935873 47.74534924 378.42343426 46.92645836 378.42763329 C42.71684402 378.44850302 38.50726233 378.46279885 34.29760742 378.47216797 C29.95759899 378.48321357 25.61810596 378.51758901 21.2782793 378.55733967 C17.93500341 378.58354292 14.59184938 378.59186324 11.24847984 378.59544945 C9.64935527 378.60030857 8.0502359 378.61190338 6.45121193 378.63048744 C4.20607938 378.65495138 1.96226726 378.65390109 -0.28295898 378.64697266 C-1.55821945 378.6528389 -2.83347992 378.65870514 -4.14738464 378.66474915 C-10.00927389 377.87047979 -13.25877431 376.06399759 -16.92054272 371.421278 C-19.99248338 365.70361158 -19.29802159 359.17328706 -19.25500488 352.86045837 C-19.25961636 351.39025793 -19.26597093 349.92006211 -19.27391386 348.44987589 C-19.29059648 344.41818879 -19.28236583 340.38688092 -19.26996899 336.35519254 C-19.26091649 332.00407757 -19.27488916 327.65302769 -19.28588867 323.30192566 C-19.3036759 314.7816905 -19.29983313 306.26159628 -19.28823811 297.74135559 C-19.27920546 290.81745794 -19.27797906 283.8935998 -19.28233337 276.96969795 C-19.28294631 275.98435012 -19.28355924 274.99900228 -19.28419074 273.98379542 C-19.28546964 271.98210854 -19.28676649 269.98042166 -19.28808111 267.9787348 C-19.29948735 249.2089369 -19.28637219 230.43921714 -19.26487964 211.66943205 C-19.24700585 195.56115777 -19.25011501 179.45299877 -19.26855469 163.34472656 C-19.28995582 144.64065593 -19.29839164 125.93665378 -19.28610563 107.23257262 C-19.28483143 105.23854515 -19.28357394 103.24451767 -19.28233337 101.25049019 C-19.28171627 100.26937612 -19.28109917 99.28826205 -19.28046337 98.27741725 C-19.2770084 91.36065279 -19.28284191 84.44393174 -19.29225159 77.527174 C-19.3034644 69.099718 -19.30044652 60.67241106 -19.27912861 52.24497216 C-19.26860895 47.94445588 -19.26451193 43.6441882 -19.27772522 39.34367371 C-19.28963594 35.40761526 -19.28310876 31.47203608 -19.26181501 27.53602118 C-19.25734334 26.11150803 -19.25962797 24.68695447 -19.26931816 23.26246726 C-19.35223482 10.06187068 -19.35223482 10.06187068 -14.74707031 5.17700195 C-9.84388118 0.75217274 -6.51118151 0.05196251 0 0 Z " fill="#FFFFFF" transform="translate(361.7470703125,7.822998046875)"/>
<path d="M0 0 C0.79059311 -0.0049649 1.58118622 -0.00992981 2.39573669 -0.01504517 C5.01277536 -0.02965699 7.6297534 -0.03646739 10.24682617 -0.04199219 C12.06662498 -0.04774474 13.88642376 -0.05350246 15.70622253 -0.05926514 C19.52355227 -0.06977254 23.34086096 -0.07561682 27.15820312 -0.07910156 C32.04409959 -0.08458369 36.92971701 -0.10860678 41.81552601 -0.13707352 C45.57566636 -0.15571939 49.33573979 -0.16090655 53.09592247 -0.16243744 C54.89681205 -0.16546043 56.69770055 -0.17347704 58.49854469 -0.18662262 C61.0213796 -0.20372289 63.54353652 -0.20179323 66.06640625 -0.1953125 C67.1771199 -0.20913467 67.1771199 -0.20913467 68.31027222 -0.22323608 C74.5214036 -0.17338441 78.44751092 1.40699173 82.85375977 5.74975586 C85.87922742 9.68165814 87.48648658 14.12863885 89.20385742 18.74316406 C89.56655731 19.68830368 89.9292572 20.6334433 90.302948 21.60722351 C91.4968547 24.7253594 92.67438747 27.84942196 93.85229492 30.97363281 C94.69415287 33.17983593 95.53727367 35.38555754 96.3815918 37.59082031 C98.13486746 42.17311574 99.88268731 46.75743664 101.62670898 51.34326172 C105.22494856 60.79244557 108.88897745 70.21594554 112.55307007 79.63973999 C114.53497063 84.73935963 116.51166158 89.84099823 118.48901367 94.94238281 C121.22919176 102.00977945 123.97040645 109.07677293 126.71279907 116.14331055 C136.04273062 140.18460761 145.3480421 164.23524443 154.62921143 188.29541016 C161.04355011 204.92283532 167.46964721 221.54562489 173.91479492 238.16113281 C174.49413284 239.65480377 174.49413284 239.65480377 175.08517456 241.1786499 C178.58991871 250.21425399 182.09602139 259.24932982 185.60522461 268.28320312 C186.00002014 269.29956848 186.39481567 270.31593384 186.80157471 271.36309814 C187.60146174 273.42231768 188.40138854 275.48152176 189.20135498 277.54071045 C191.18157895 282.63940688 193.15925963 287.73906545 195.1315918 292.84082031 C195.71006866 294.33702911 195.71006866 294.33702911 196.30023193 295.86346436 C197.07965635 297.87942199 197.85899393 299.8954132 198.63824463 301.91143799 C201.11137457 308.30179867 203.60824814 314.68241823 206.11933899 321.05795288 C207.82064548 325.38425233 209.5098607 329.71521354 211.19699097 334.04705811 C212.00008426 336.10066657 212.80850269 338.15220161 213.62258911 340.20147705 C214.74832144 343.03693936 215.85498693 345.87917888 216.95776367 348.72363281 C217.29111725 349.54954926 217.62447083 350.3754657 217.96792603 351.22640991 C220.18819082 357.03313583 221.65305208 363.05757106 219.54411316 369.12744141 C217.28806675 373.54983771 214.49856242 375.8016837 210.22729492 378.16113281 C206.69885254 378.66906738 206.69885254 378.66906738 202.7565918 378.67871094 C202.0338356 378.68572021 201.31107941 378.69272949 200.56642151 378.69995117 C198.19256435 378.71746425 195.81991284 378.70593335 193.44604492 378.69238281 C191.78747327 378.69507968 190.12890317 378.69896372 188.47033691 378.70397949 C185.00033461 378.70986544 181.53074519 378.70134106 178.06079102 378.68261719 C173.62204879 378.6598278 169.18427409 378.67295578 164.74556732 378.69690704 C161.32249719 378.71138969 157.8996549 378.70674782 154.47657776 378.69639587 C152.84037663 378.69373538 151.20415454 378.69697444 149.56797791 378.70631409 C147.27743059 378.71652093 144.98843066 378.70092351 142.69799805 378.67871094 C141.397052 378.67552856 140.09610596 378.67234619 138.7557373 378.66906738 C133.71297601 377.94314004 130.70605033 375.60287221 127.12060547 372.10717773 C124.28519818 367.69520356 122.68675048 362.94961153 120.93432617 358.02441406 C120.54282883 356.94862595 120.15133148 355.87283783 119.74797058 354.76445007 C118.5028734 351.33737353 117.27101706 347.90571562 116.03979492 344.47363281 C114.79496854 341.03194107 113.54750166 337.59121627 112.29948425 334.15068054 C111.52462412 332.01145454 110.7521869 329.87134911 109.9823761 327.7303009 C109.63498886 326.76557358 109.28760162 325.80084625 108.9296875 324.80688477 C108.62420486 323.95592728 108.31872223 323.10496979 108.00398254 322.22822571 C107.26080191 320.14144636 107.26080191 320.14144636 106.22729492 318.16113281 C57.38729492 318.16113281 8.54729492 318.16113281 -41.77270508 318.16113281 C-47.87093632 334.37055157 -47.87093632 334.37055157 -53.81176758 350.63769531 C-54.46532227 352.44367188 -54.46532227 352.44367188 -55.13208008 354.28613281 C-55.99923713 356.68419675 -56.85001244 359.08822976 -57.68676758 361.49707031 C-60.53905349 369.272945 -63.11246447 374.33101251 -70.77270508 378.16113281 C-73.07897118 378.27391567 -75.38855463 378.32054288 -77.69750977 378.33813477 C-78.40992828 378.34470596 -79.1223468 378.35127716 -79.85635376 378.35804749 C-82.21909691 378.37779177 -84.5817764 378.38944665 -86.94458008 378.39941406 C-87.75166664 378.40348959 -88.5587532 378.40756512 -89.39029694 378.41176414 C-93.66359705 378.43263152 -97.93686501 378.4469293 -102.21020508 378.45629883 C-106.61981006 378.46735377 -111.02890909 378.50174078 -115.43833542 378.54147053 C-118.83218306 378.56764617 -122.22591045 378.57599157 -125.61985016 378.57958031 C-127.24492045 378.58444528 -128.8699854 378.59605681 -130.49495697 378.6146183 C-132.7738165 378.63902697 -135.05137141 378.6380421 -137.33032227 378.63110352 C-138.62556824 378.63696976 -139.92081421 378.642836 -141.25531006 378.64888 C-146.39653681 377.93596067 -149.38933649 375.46972472 -153.08520508 371.97363281 C-155.48894302 367.96740291 -156.25519509 364.74957298 -155.77270508 360.16113281 C-154.97556809 357.68219657 -154.13067371 355.31272622 -153.17114258 352.89941406 C-152.90047974 352.19917114 -152.62981689 351.49892822 -152.35095215 350.77746582 C-151.78049902 349.30252965 -151.20681311 347.82884014 -150.63006592 346.35635376 C-149.55600211 343.60627787 -148.50730644 340.84693589 -147.45896912 338.0869751 C-146.07249196 334.44159714 -144.67222345 330.80151973 -143.27270508 327.16113281 C-142.80666367 325.94842209 -142.80666367 325.94842209 -142.33120728 324.71121216 C-133.95916254 302.94285212 -125.39804505 281.24851847 -116.85684204 259.54614258 C-112.39823724 248.21490119 -107.95759273 236.87667417 -103.52270508 225.53613281 C-102.7871098 223.65543603 -102.0515141 221.77473942 -101.31591797 219.89404297 C-99.86026281 216.17210427 -98.40479689 212.45009163 -96.94946289 208.72802734 C-93.26673876 199.30942831 -89.58245314 189.8914402 -85.89770508 180.47363281 C-85.52931519 179.53203308 -85.16092529 178.59043335 -84.78137207 177.62030029 C-78.36450054 161.21972307 -71.93594502 144.82374109 -65.50476074 128.42877197 C-59.91728539 114.18429188 -54.33415759 99.93812455 -48.75909424 85.68878174 C-47.6570874 82.87260928 -46.55455067 80.05664477 -45.4519043 77.24072266 C-41.97475543 68.35885712 -38.50361101 59.4747366 -35.04794312 50.58448792 C-33.39761563 46.33979765 -31.74448987 42.09619977 -30.09112549 37.85269165 C-29.3046872 35.83189557 -28.51961948 33.81056549 -27.73602295 31.78866577 C-26.6501388 28.98698595 -25.55956172 26.18717391 -24.46801758 23.38769531 C-24.15213684 22.56897446 -23.8362561 21.7502536 -23.51080322 20.90672302 C-17.68451811 6.01410792 -17.68451811 6.01410792 -10.77270508 1.16113281 C-7.13417834 -0.05170943 -3.78862816 0.00567298 0 0 Z M32.22729492 117.16113281 C23.95759633 138.54712291 15.7655066 159.95913575 7.74829102 181.44116211 C4.66908698 189.68587784 1.564007 197.91911084 -1.60473633 206.12988281 C-1.91123108 206.92524948 -2.21772583 207.72061615 -2.5335083 208.54008484 C-3.98709595 212.31062924 -5.44596603 216.07898019 -6.91381836 219.84399414 C-7.42816441 221.17489562 -7.94233505 222.50586491 -8.45629883 223.83691406 C-8.90545654 224.99102783 -9.35461426 226.1451416 -9.81738281 227.33422852 C-10.93278123 230.13748888 -10.93278123 230.13748888 -10.77270508 233.16113281 C17.60729492 233.16113281 45.98729492 233.16113281 75.22729492 233.16113281 C74.40941211 228.25383592 73.25562688 224.1111007 71.50854492 219.52441406 C71.22245361 218.75971802 70.9363623 217.99502197 70.64160156 217.20715332 C69.6751695 214.62740527 68.70114268 212.05058966 67.72729492 209.47363281 C67.03726717 207.6355509 66.34783226 205.79724635 65.65893555 203.95874023 C64.09671944 199.79098572 62.53175467 195.62427483 60.96557617 191.45800781 C57.83147156 183.11390292 54.71644425 174.76270198 51.60229492 166.41113281 C51.31866592 165.65053244 51.03503693 164.88993206 50.74281311 164.10628319 C49.59616818 161.03129989 48.44957057 157.95629896 47.3030777 154.88125896 C44.24849237 146.68867526 41.19113434 138.49712697 38.13354492 130.30566406 C37.63240306 128.96301364 37.13126365 127.62036231 36.63012695 126.27770996 C35.49587615 123.238841 34.36159988 120.19998155 33.22729492 117.16113281 C32.89729492 117.16113281 32.56729492 117.16113281 32.22729492 117.16113281 Z " fill="#FFFFFF" transform="translate(2060.772705078125,7.8388671875)"/>
<path d="M0 0 C0.79088516 -0.00511093 1.58177032 -0.01022186 2.3966217 -0.01548767 C5.00285475 -0.02935212 7.60882242 -0.02842933 10.21508789 -0.02612305 C12.03202919 -0.03001161 13.84896959 -0.03434661 15.66590881 -0.03910828 C19.47131296 -0.04656364 23.27662431 -0.04628409 27.08203125 -0.04101562 C31.95220174 -0.03522083 36.82199195 -0.05215552 41.69209957 -0.0753603 C45.44367178 -0.09011045 49.19515266 -0.09096761 52.94674873 -0.08785057 C54.7420483 -0.0883631 56.53735306 -0.09358804 58.33262444 -0.10366249 C60.84569714 -0.116035 63.35803235 -0.1092307 65.87109375 -0.09765625 C66.97709427 -0.10912186 66.97709427 -0.10912186 68.10543823 -0.12081909 C74.2416871 -0.05852873 78.17556409 1.52492959 82.58569336 5.75390625 C85.98877829 10.17933976 87.70146071 15.42306368 89.63305664 20.60668945 C90.06248062 21.72975998 90.4919046 22.85283051 90.93434143 24.00993347 C92.09927271 27.06220722 93.25389717 30.11814092 94.40432358 33.17590332 C95.62108507 36.40169747 96.85169356 39.62219558 98.08154297 42.84301758 C99.84400352 47.4613519 101.60308852 52.08093922 103.35748005 56.70234489 C107.36330149 67.25221495 111.4377591 77.77500906 115.52816772 88.29232788 C117.08784198 92.30367527 118.64417554 96.31631551 120.20057678 100.32893372 C122.13310483 105.31111135 124.06675382 110.29285395 126.00024414 115.2746582 C129.10503398 123.27441651 132.20940245 131.274338 135.31274414 139.2746582 C135.70005707 140.27311768 136.08737 141.27157715 136.48641968 142.30029297 C143.47878881 160.32862338 150.44283353 178.36782912 157.40216064 196.40893555 C163.81649921 213.03636039 170.24246098 229.65920301 176.68774414 246.2746582 C177.07297241 247.26778015 177.45820068 248.2609021 177.85510254 249.28411865 C180.97136442 257.31732726 184.08880469 265.35007841 187.206604 273.38269043 C188.02160251 275.4824319 188.83657432 277.58218374 189.65151978 279.6819458 C190.46913059 281.78854314 191.28681843 283.89511058 192.10458374 286.00164795 C194.11140355 291.1721525 196.11593947 296.34352079 198.11547852 301.5168457 C198.89077945 303.52208872 199.66616932 305.52729735 200.44165039 307.5324707 C200.82060455 308.51233948 201.19955872 309.49220825 201.58999634 310.50177002 C203.84143893 316.31331561 206.11810276 322.11417093 208.41799927 327.90670776 C209.84827536 331.51290432 211.26744816 335.12341474 212.68518066 338.73455811 C213.34395165 340.40362374 214.0081022 342.07057798 214.67810059 343.73516846 C215.59495111 346.01394769 216.49281904 348.29939286 217.38696289 350.5871582 C217.78853859 351.56348709 217.78853859 351.56348709 218.19822693 352.55953979 C220.25050838 357.90054873 221.16512224 363.71233783 219.35502625 369.24780273 C217.06685703 373.83609302 213.7003245 376.29980937 209.00024414 378.2746582 C205.38951111 378.78259277 205.38951111 378.78259277 201.5078125 378.79223633 C200.43808952 378.80275024 200.43808952 378.80275024 199.34675598 378.81347656 C197.01079316 378.83095157 194.67606105 378.81947382 192.34008789 378.8059082 C190.7053657 378.80860587 189.07064507 378.81249057 187.43592834 378.81750488 C184.01897828 378.82338541 180.60244795 378.81488296 177.18554688 378.79614258 C172.8152097 378.77333533 168.44585428 378.78649585 164.07555294 378.81043243 C160.70309606 378.82491436 157.33087045 378.82027386 153.95840645 378.80992126 C152.34732508 378.80726152 150.73622241 378.81049721 149.12516594 378.81983948 C146.87064164 378.83004727 144.61768904 378.81444866 142.36328125 378.79223633 C141.0831163 378.78905396 139.80295135 378.78587158 138.48399353 378.78259277 C131.8353473 377.81321269 129.1208661 374.42543565 125.00024414 369.2746582 C118.73024414 352.4446582 112.46024414 335.6146582 106.00024414 318.2746582 C57.16024414 318.2746582 8.32024414 318.2746582 -41.99975586 318.2746582 C-47.31554318 331.82136686 -47.31554318 331.82136686 -52.28100586 345.4777832 C-52.81760417 346.98731139 -53.35539575 348.49641585 -53.89428711 350.00512695 C-54.70786688 352.28562321 -55.51450158 354.56753119 -56.30200195 356.85717773 C-62.16912143 373.85934099 -62.16912143 373.85934099 -70.99975586 378.2746582 C-73.30602196 378.38744106 -75.61560541 378.43406827 -77.92456055 378.45166016 C-78.63697906 378.45823135 -79.34939758 378.46480255 -80.08340454 378.47157288 C-82.44614769 378.49131716 -84.80882719 378.50297204 -87.17163086 378.51293945 C-87.97871742 378.51701498 -88.78580399 378.52109051 -89.61734772 378.52528954 C-93.89064784 378.54615691 -98.16391579 378.56045469 -102.43725586 378.56982422 C-106.84686084 378.58087916 -111.25595987 378.61526617 -115.6653862 378.65499592 C-119.05923384 378.68117156 -122.45296124 378.68951696 -125.84690094 378.6931057 C-127.47197123 378.69797067 -129.09703619 378.70958221 -130.72200775 378.72814369 C-133.00086728 378.75255236 -135.27842219 378.75156749 -137.55737305 378.74462891 C-138.85261902 378.75049515 -140.14786499 378.75636139 -141.48236084 378.7624054 C-146.62358759 378.04948606 -149.61638727 375.58325011 -153.31225586 372.0871582 C-155.72881694 368.05955641 -156.47194267 364.88572292 -155.99975586 360.2746582 C-155.20875377 357.63614943 -154.36735736 355.09834147 -153.41381836 352.52075195 C-153.00906281 351.4023719 -153.00906281 351.4023719 -152.59613037 350.26139832 C-149.91685207 342.91910267 -147.06492712 335.64544258 -144.16757202 328.38696289 C-142.52259038 324.26507373 -140.88918925 320.13858696 -139.25366211 316.01293945 C-138.73591972 314.70820175 -138.73591972 314.70820175 -138.2077179 313.37710571 C-134.16733314 303.18943316 -130.17695757 292.98226057 -126.18725586 282.7746582 C-125.42653584 280.82909289 -124.66579353 278.8835363 -123.9050293 276.93798828 C-122.36915548 273.0099366 -120.83355158 269.08177952 -119.2980957 265.15356445 C-115.90831639 256.48199421 -112.51490796 247.81184415 -109.12173462 239.14160156 C-107.24758939 234.35268004 -105.37368494 229.56366431 -103.49975586 224.7746582 C-102.74975701 222.85799109 -101.99975701 220.94132442 -101.24975586 219.0246582 C-100.87850586 218.0759082 -100.50725586 217.1271582 -100.12475586 216.1496582 C-96.74975585 207.52465818 -96.74975585 207.52465818 -95.62472534 204.64958191 C-94.87482553 202.73317016 -94.12492726 200.8167578 -93.37503052 198.90034485 C-91.49851018 194.10477308 -89.62196308 189.30921179 -87.74536133 184.51367188 C-84.38847817 175.93528864 -81.03176875 167.35683768 -77.67608643 158.77798462 C-68.62550891 135.64010154 -59.56513145 112.50609498 -50.48974609 89.37792969 C-46.31186107 78.72944828 -42.13990222 68.07870403 -37.98022461 57.4230957 C-37.16578663 55.33780333 -36.35133374 53.25251678 -35.53686523 51.16723633 C-34.0221523 47.28898732 -32.50939433 43.40998404 -30.99780273 39.53051758 C-29.32844846 35.24962293 -27.64554049 30.9742607 -25.95477295 26.70178223 C-24.9957571 24.26449558 -24.05352082 21.82112215 -23.11157227 19.37719727 C-22.50863345 17.84533045 -21.90499016 16.31374066 -21.30053711 14.7824707 C-21.04000046 14.09361786 -20.77946381 13.40476501 -20.5110321 12.69503784 C-18.44079944 7.52405525 -15.86357018 3.75438719 -10.83685303 1.15708923 C-7.20321201 0.02690673 -3.76647662 -0.01262059 0 0 Z M32.00024414 117.2746582 C25.69665873 132.72622535 19.82350055 148.32494566 14.02689362 163.97262573 C11.84935164 169.84841819 9.6654888 175.72186491 7.48071289 181.5949707 C7.24310242 182.23392021 7.00549194 182.87286972 6.76068115 183.53118134 C3.77272065 191.56281023 0.75586402 199.58244068 -2.32397461 207.5793457 C-2.6371312 208.39279449 -2.95028778 209.20624329 -3.27293396 210.04434204 C-4.67182312 213.67210767 -6.07832845 217.29672279 -7.49462891 220.91772461 C-7.96811768 222.1389502 -8.44160645 223.36017578 -8.92944336 224.6184082 C-9.33404785 225.6515918 -9.73865234 226.68477539 -10.15551758 227.74926758 C-11.15828227 230.30506739 -11.15828227 230.30506739 -10.99975586 233.2746582 C17.38024414 233.2746582 45.76024414 233.2746582 75.00024414 233.2746582 C74.12190243 227.96967802 74.12190243 227.96967802 72.55175781 223.04418945 C72.25528351 222.25596802 71.9588092 221.46774658 71.65335083 220.65563965 C71.16570755 219.38424133 71.16570755 219.38424133 70.66821289 218.0871582 C70.3241037 217.176073 69.97999451 216.26498779 69.62545776 215.32629395 C68.87694792 213.34602828 68.12597637 211.36669175 67.37283325 209.38818359 C65.33397417 204.03159104 63.31308318 198.66821296 61.28930664 193.3059082 C60.86337723 192.17890503 60.43744781 191.05190186 59.99861145 189.89074707 C54.95805931 176.5416935 50.01002874 163.15849326 45.06274414 149.7746582 C43.7823316 146.31226145 42.5018115 142.84990452 41.22122192 139.38757324 C40.45707656 137.32119297 39.69320078 135.25471298 38.92965698 133.18811035 C36.96716542 127.87829362 34.99269575 122.57330861 33.00024414 117.2746582 C32.67024414 117.2746582 32.34024414 117.2746582 32.00024414 117.2746582 Z " fill="#FFFFFF" transform="translate(868.999755859375,7.725341796875)"/>
<path d="M0 0 C1.50565018 -0.00101212 1.50565018 -0.00101212 3.04171753 -0.00204468 C19.06943236 0.0150392 34.64576168 0.72944143 50.5 3.25 C51.57217773 3.41097168 52.64435547 3.57194336 53.74902344 3.73779297 C68.45878188 5.97848049 82.88270985 9.16377905 97.3125 12.75 C98.06232147 12.93532288 98.81214294 13.12064575 99.58468628 13.31158447 C131.98895324 21.37244492 131.98895324 21.37244492 138.828125 31.1484375 C141.3731693 35.39615228 142.62051757 38.97872619 142.66113281 43.88574219 C142.67074036 44.82391785 142.6803479 45.76209351 142.69024658 46.72869873 C142.6966214 48.24744598 142.6966214 48.24744598 142.703125 49.796875 C142.70882507 50.8414386 142.71452515 51.8860022 142.72039795 52.96221924 C142.72984847 55.17467231 142.73638213 57.38713947 142.74023438 59.59960938 C142.7499222 62.9729087 142.78093831 66.34559414 142.8125 69.71875 C142.81903202 71.86978805 142.82428171 74.02083046 142.828125 76.171875 C142.8404718 77.17627625 142.8528186 78.18067749 142.86553955 79.21551514 C142.83757256 88.07579462 140.60547847 93.89854914 134.5 100.44921875 C128.38017971 105.95944757 122.12150824 106.65882869 114.11230469 106.55761719 C107.85313254 106.02459766 102.12679218 104.08619728 96.1875 102.125 C93.53815887 101.28589615 90.88427327 100.46158049 88.23046875 99.63671875 C87.57307709 99.4306752 86.91568542 99.22463165 86.2383728 99.01234436 C48.56933938 87.26269023 -1.46410297 75.93620094 -39.5 91.25 C-44.35724466 93.85735211 -48.51949232 96.52199229 -51.5 101.25 C-52.82955741 105.80247188 -52.74141922 109.48762351 -51.3125 114 C-38.21160549 137.49125913 0.28382797 146.02133601 23.875 154.1640625 C70.54923123 170.28383762 125.71981688 190.16776021 149.4609375 237.0546875 C160.84313254 260.62914581 162.99142276 291.35947942 154.5 316.25 C154.25330566 316.97316406 154.00661133 317.69632812 153.75244141 318.44140625 C148.67343406 332.78360011 141.01629126 344.24718993 130.5 355.25 C129.59894531 356.26320313 129.59894531 356.26320313 128.6796875 357.296875 C105.61624997 382.25730522 66.02583141 392.6406515 33.29855347 394.42449951 C25.34526866 394.69789623 17.39426575 394.67951524 9.4375 394.625 C8.22666748 394.62034729 7.01583496 394.61569458 5.76831055 394.61090088 C-12.15598318 394.53017946 -29.7780634 394.15196055 -47.5 391.25 C-49.31902832 390.95996094 -49.31902832 390.95996094 -51.17480469 390.6640625 C-122.61581323 378.91735518 -122.61581323 378.91735518 -135.5 362.25 C-140.07967354 355.14267282 -140.66124823 348.41812101 -140.703125 340.14453125 C-140.70882507 339.26528488 -140.71452515 338.38603851 -140.72039795 337.48014832 C-140.7298242 335.62178745 -140.73637247 333.76341005 -140.74023438 331.9050293 C-140.74990766 329.08937678 -140.78094019 326.27446484 -140.8125 323.45898438 C-140.94869921 300.83457332 -140.94869921 300.83457332 -132.46875 291.94140625 C-126.66568671 286.95583799 -120.21039514 284.95318174 -112.61962891 285.06689453 C-109.12720986 285.36858933 -105.95379051 286.49377546 -102.6875 287.6875 C-101.09643246 288.23850737 -99.50528117 288.78927298 -97.9140625 289.33984375 C-96.10901837 289.97555078 -94.30435364 290.61233576 -92.5 291.25 C-59.34596681 302.95801848 -27.23834576 309.43616164 7.9375 309.625 C8.76945892 309.6330365 9.60141785 309.641073 10.45858765 309.64935303 C28.10774028 309.77888729 51.62824659 309.64603496 65.5 297.25 C68.34355005 292.6627636 69.0171801 288.67968698 68.9375 283.375 C68.92505249 282.31164429 68.92505249 282.31164429 68.91235352 281.22680664 C68.73182249 275.64447887 67.9557008 271.64248716 64.5 267.25 C64.07203125 266.68539063 63.6440625 266.12078125 63.203125 265.5390625 C44.40720071 244.1272106 7.20194094 236.34885499 -18.92358398 227.8359375 C-33.75052986 222.99555179 -48.18040309 217.43231232 -62.5 211.25 C-63.40782227 210.858125 -64.31564453 210.46625 -65.25097656 210.0625 C-95.70238534 196.72915796 -122.15608061 176.43771359 -135.5 145.25 C-140.07056149 133.16100007 -141.88336594 120.94694025 -141.8125 108.0625 C-141.80686035 106.97461182 -141.8012207 105.88672363 -141.79541016 104.76586914 C-141.38016053 76.93797733 -131.17662301 53.45426563 -111.40454102 33.7199707 C-82.06051706 5.62405133 -38.78278991 0.02341788 0 0 Z " fill="#FFFFFF" transform="translate(141.5,-0.25)"/>
<path d="M0 0 C0.95674212 -0.00709439 1.91348425 -0.01418877 2.89921856 -0.02149814 C6.08988379 -0.03903337 9.27932364 -0.02099553 12.4699707 -0.00291443 C14.7635656 -0.00805493 17.05715656 -0.01533718 19.35073853 -0.02459717 C25.56976085 -0.0431024 31.78835412 -0.03017766 38.00735855 -0.01050687 C44.51923363 0.00588791 51.03108172 -0.00293443 57.54296875 -0.00802612 C68.47801717 -0.01254613 79.41289046 0.00321237 90.34790039 0.03126526 C101.58820709 0.06010079 112.82826997 0.06718523 124.06860352 0.05177307 C137.62918223 0.03320486 151.1895685 0.03496144 164.75015259 0.0539875 C169.92382825 0.06085554 175.09741327 0.05982801 180.27108765 0.05244255 C186.36479518 0.04477494 192.45815202 0.05692201 198.55179977 0.08429146 C200.78666518 0.09117128 203.02156337 0.09127762 205.25642776 0.08407593 C208.31017635 0.07537021 211.36284542 0.09135717 214.41650391 0.11352539 C215.29822612 0.10528462 216.17994833 0.09704386 217.0883894 0.08855337 C222.86205913 0.16576555 227.4277879 1.26638851 232.20825195 4.62818909 C236.93691346 10.56932791 237.35593992 15.29947708 237.34869385 22.65957642 C237.35315053 24.06310581 237.35315053 24.06310581 237.35769725 25.49498934 C237.36640024 28.64494833 237.36789395 31.79486939 237.36938477 34.94483948 C237.37401242 37.19863466 237.37903701 39.45242905 237.38442993 41.70622253 C237.39757538 47.84602428 237.40400499 53.98581508 237.40844059 60.12562871 C237.41137252 63.97002957 237.41547792 67.81442746 237.41994476 71.65882683 C237.4320655 82.32780017 237.44243936 92.99676986 237.44581985 103.66574955 C237.44603942 104.34905699 237.44625899 105.03236443 237.44648521 105.73637816 C237.44670348 106.4212548 237.44692176 107.10613144 237.44714665 107.81176192 C237.4475901 109.19938282 237.44803667 110.58700373 237.44848633 111.97462463 C237.44870776 112.6629213 237.44892919 113.35121797 237.44915733 114.06037211 C237.45308559 125.15537308 237.47047343 136.25030757 237.49384585 147.34528298 C237.5177152 158.76993552 237.52977253 170.19454008 237.53118777 181.61922067 C237.5322288 188.01960381 237.53798327 194.41989361 237.55600739 200.82025337 C237.5726922 206.86379541 237.57454641 212.90717609 237.56586838 218.95073318 C237.56510833 221.14741007 237.5693008 223.34409636 237.57932663 225.5407505 C237.77035983 270.07738693 229.02984267 313.79170405 197.17700195 346.75318909 C178.47729795 365.30208902 153.76204316 377.08539749 128.20825195 382.62818909 C126.87479736 382.92233704 126.87479736 382.92233704 125.5144043 383.22242737 C93.86747005 389.83739927 59.02993581 388.3686618 27.20825195 383.62818909 C26.00861816 383.45126526 24.80898437 383.27434143 23.57299805 383.09205627 C10.54314996 381.11581998 -2.35874003 378.67633265 -15.16674805 375.56568909 C-16.1410376 375.33261047 -17.11532715 375.09953186 -18.11914062 374.85939026 C-24.90637881 373.1275903 -30.6793304 371.29650611 -35.16674805 365.62818909 C-37.65947991 361.02622258 -37.92167966 357.44727906 -37.95288086 352.22657776 C-37.9624884 350.9281041 -37.97209595 349.62963043 -37.98199463 348.29180908 C-37.98684318 346.8765938 -37.99112187 345.46137646 -37.99487305 344.04615784 C-38.00062957 342.58890787 -38.00638724 341.13165791 -38.012146 339.67440796 C-38.0226398 336.62050526 -38.02849295 333.56662875 -38.03198242 330.51271057 C-38.03746156 326.61227195 -38.06148371 322.71218338 -38.08995438 318.81185436 C-38.10864033 315.80142222 -38.11378952 312.79107337 -38.1153183 309.78058815 C-38.1183323 308.34336243 -38.12631827 306.90613774 -38.13950348 305.46896935 C-38.27440941 289.63324966 -38.27440941 289.63324966 -32.29174805 282.75318909 C-28.10895104 279.19781164 -24.26210436 279.28095534 -18.98901367 279.33375549 C-13.07594721 279.87828498 -7.63516859 281.90919081 -2.04174805 283.81568909 C0.52558069 284.65739906 3.09822604 285.4817392 5.6730957 286.30006409 C6.31188156 286.50344894 6.95066742 286.7068338 7.60881042 286.91638184 C16.98286621 289.86122228 26.54513058 291.89368308 36.20825195 293.62818909 C36.90031738 293.75274475 37.59238281 293.87730042 38.30541992 294.00563049 C63.78351591 298.35617813 98.69658173 301.01480641 121.20825195 285.62818909 C121.88243164 285.19506409 122.55661133 284.76193909 123.2512207 284.31568909 C132.80346671 277.2207907 137.42115168 264.13634539 139.7355957 252.88600159 C141.09592547 243.50984436 141.34748408 234.28309043 141.32177734 224.81520081 C141.32149474 223.34576418 141.32165464 221.87632741 141.32221985 220.40689087 C141.32250495 216.44685295 141.31665487 212.48684576 141.30964589 208.52681494 C141.30336433 204.37751264 141.30280477 200.22820952 141.30162048 196.0789032 C141.29852127 188.23459273 141.29032699 180.39029632 141.28027099 172.54599202 C141.26906594 163.61001913 141.26358837 154.67404556 141.25857556 145.73806739 C141.24814311 127.36810001 141.23057113 108.99814568 141.20825195 90.62818909 C140.06607161 90.62460656 140.06607161 90.62460656 138.90081692 90.62095165 C120.36357781 90.56178739 101.82647169 90.48622814 83.28937435 90.39247417 C74.3249269 90.34752961 65.36051905 90.30811185 56.39599609 90.28175354 C48.5815163 90.25876262 40.76716199 90.22535235 32.95278174 90.17948753 C28.81602057 90.15557004 24.67938357 90.13683162 20.54255486 90.13057518 C16.64616506 90.12451763 12.7500929 90.10449376 8.8538208 90.07391357 C7.42644521 90.06514406 5.99902809 90.06140852 4.57162666 90.06318092 C-10.81321766 90.07624876 -10.81321766 90.07624876 -17.60424805 84.19068909 C-21.30397094 79.85672799 -22.04356997 77.02865198 -22.08227539 71.31837463 C-22.0950351 70.03992172 -22.1077948 68.76146881 -22.12094116 67.4442749 C-22.12399922 66.05115409 -22.12622676 64.65803124 -22.12768555 63.26490784 C-22.13411634 61.83007678 -22.14084491 60.39524703 -22.14785767 58.9604187 C-22.1598245 55.95356712 -22.16353921 52.94683037 -22.16235352 49.93995667 C-22.16215058 46.09989946 -22.18942748 42.2605845 -22.22389793 38.42070293 C-22.24621449 35.45657009 -22.25018959 32.49261437 -22.24913406 29.52840614 C-22.25148385 28.1135026 -22.2602722 26.69859372 -22.2757988 25.28377342 C-22.41747661 11.03766834 -22.41747661 11.03766834 -17.79174805 5.62818909 C-12.07886619 0.93228175 -7.25851463 -0.0974341 0 0 Z " fill="#F16829" transform="translate(2352.791748046875,3.3718109130859375)"/>
<path d="M0 0 C1.46935998 -0.00573832 1.46935998 -0.00573832 2.968404 -0.01159257 C6.21830593 -0.02182949 9.4680281 -0.01794823 12.71794128 -0.01396179 C15.06135215 -0.01831344 17.4047616 -0.02349809 19.74816895 -0.02944946 C26.09124661 -0.04280239 32.43426455 -0.04342222 38.77735353 -0.04088616 C44.75519286 -0.03967797 50.73302394 -0.04590258 56.71085998 -0.05131962 C69.27556434 -0.06217516 81.8402418 -0.06004219 94.40494766 -0.05393478 C105.87290882 -0.04876824 117.34078497 -0.06001763 128.80872933 -0.07903299 C140.61326273 -0.09845483 152.41775601 -0.10665974 164.22230548 -0.10290974 C170.83791368 -0.10100417 177.45345867 -0.10369049 184.06905556 -0.11762428 C190.29324542 -0.13024396 196.51726576 -0.12821933 202.74145317 -0.11521339 C205.01735111 -0.11285703 207.29326114 -0.11554831 209.5691452 -0.12383652 C229.17314601 -0.19004582 248.88282846 0.80529294 263.92179871 15.26460266 C272.06547624 24.61610653 276.87414164 35.88216788 277.66007996 48.26069641 C277.73742371 49.45179016 277.73742371 49.45179016 277.81632996 50.66694641 C278.35271157 65.86442552 274.26342306 80.02394994 264.34757996 91.63569641 C252.29433131 104.23406686 237.28606094 108.69535983 220.26444292 109.35329473 C217.80776757 109.39086284 215.35293668 109.3988936 212.89598083 109.39440918 C211.96626457 109.39667474 211.0365483 109.39894029 210.07865882 109.4012745 C206.99152842 109.4075587 203.90444256 109.40678875 200.81730652 109.40596008 C198.59226933 109.40895506 196.36723265 109.41235836 194.14219666 109.4161377 C188.11724478 109.42494736 182.09230713 109.42731453 176.06734943 109.42795348 C172.29788122 109.42866569 168.5284166 109.43080326 164.75894928 109.4334507 C152.2719917 109.44221766 139.78504216 109.44687166 127.29808214 109.44612022 C126.62637931 109.44608027 125.95467648 109.44604031 125.26261902 109.44599915 C124.59008621 109.44595826 123.91755341 109.44591738 123.22464082 109.44587526 C112.332156 109.44546905 101.4397058 109.45503508 90.54723099 109.46913751 C79.33486204 109.48353837 68.1225094 109.49022298 56.91012931 109.48954374 C50.62650994 109.48928947 44.34292976 109.49210098 38.05931854 109.50272179 C32.14624877 109.51244406 26.23325535 109.51245373 20.3201828 109.50520515 C18.15877673 109.50416444 15.9973658 109.50649145 13.83596802 109.51256561 C-7.09649512 109.56754911 -26.81587902 108.93107898 -43.33992004 94.26069641 C-54.24416202 82.81950313 -58.31207359 68.80411781 -58.71492004 53.19819641 C-58.32146434 38.05870527 -54.24343649 25.55716742 -43.79304504 14.51850891 C-31.75797189 3.44164222 -15.90794891 -0.06738267 0 0 Z " fill="#F26829" transform="translate(3012.3399200439453,144.7393035888672)"/>
<path d="M0 0 C1.46935998 -0.00573832 1.46935998 -0.00573832 2.968404 -0.01159257 C6.21830593 -0.02182949 9.4680281 -0.01794823 12.71794128 -0.01396179 C15.06135215 -0.01831344 17.4047616 -0.02349809 19.74816895 -0.02944946 C26.09124661 -0.04280239 32.43426455 -0.04342222 38.77735353 -0.04088616 C44.75519286 -0.03967797 50.73302394 -0.04590258 56.71085998 -0.05131962 C69.27556434 -0.06217516 81.8402418 -0.06004219 94.40494766 -0.05393478 C105.87290882 -0.04876824 117.34078497 -0.06001763 128.80872933 -0.07903299 C140.61326273 -0.09845483 152.41775601 -0.10665974 164.22230548 -0.10290974 C170.83791368 -0.10100417 177.45345867 -0.10369049 184.06905556 -0.11762428 C190.29324542 -0.13024396 196.51726576 -0.12821933 202.74145317 -0.11521339 C205.01735111 -0.11285703 207.29326114 -0.11554831 209.5691452 -0.12383652 C229.40729492 -0.19083662 248.58225301 0.98403364 263.82804871 15.29585266 C274.58690595 26.74101599 278.19146628 40.51064366 278.00920105 55.95332336 C277.53059309 70.40109771 272.92183442 83.06568133 262.91007996 93.69819641 C249.16101743 106.493327 231.97589841 109.42731279 213.85128784 109.39440918 C212.91678246 109.39667474 211.98227708 109.39894029 211.01945335 109.4012745 C207.91616951 109.40755914 204.81292996 109.40678873 201.7096405 109.40596008 C199.4731287 109.40895501 197.23661742 109.41235831 195.00010681 109.4161377 C188.94423135 109.42494734 182.88837003 109.42731451 176.83248878 109.42795348 C173.04426728 109.42866564 169.25604936 109.43080308 165.46782875 109.4334507 C152.92046799 109.44221731 140.37311523 109.44687166 127.82575204 109.44612022 C127.15079949 109.44608027 126.47584694 109.44604031 125.78044128 109.44599915 C125.10465555 109.44595826 124.42886982 109.44591738 123.73260573 109.44587526 C112.78447996 109.44546894 101.83638861 109.45503774 90.88827278 109.46913751 C79.62053806 109.48353332 68.35281957 109.4902232 57.08507377 109.48954374 C50.76962829 109.48928936 44.45422179 109.49210713 38.13878441 109.50272179 C32.19699071 109.51243651 26.25527301 109.51245885 20.31347656 109.50520515 C18.14036256 109.50416355 15.96724373 109.50649685 13.79413795 109.51256561 C-25.73505585 109.6157556 -25.73505585 109.6157556 -40.33992004 96.26069641 C-41.20617004 95.47694641 -42.07242004 94.69319641 -42.96492004 93.88569641 C-54.5505454 81.08053154 -58.396783 67.32770633 -58.33992004 50.26069641 C-57.55050606 36.31438276 -53.25318257 24.29591472 -43.33992004 14.26069641 C-30.93537162 3.55052981 -16.04838462 -0.06797753 0 0 Z " fill="#F16829" transform="translate(2662.3399200439453,144.7393035888672)"/>
<path d="M0 0 C2.37001872 -0.00571007 4.7400347 -0.01267679 7.11004639 -0.02079773 C13.51721129 -0.03867484 19.92423883 -0.03757084 26.33142114 -0.03185534 C30.3416383 -0.02878214 34.35183608 -0.03176405 38.36205101 -0.03633308 C39.03008286 -0.03708151 39.6981147 -0.03782993 40.38638994 -0.03860103 C41.7439893 -0.04013269 43.10158866 -0.04167103 44.45918801 -0.043216 C57.15988892 -0.05690998 69.86052805 -0.05152551 82.56122752 -0.04003078 C94.1473687 -0.03010426 105.73335004 -0.04303451 117.31946657 -0.06696498 C129.2529029 -0.09142465 141.18626501 -0.10094688 153.11972588 -0.09431225 C159.8047015 -0.09083489 166.48952833 -0.09329377 173.17449379 -0.11056328 C179.4644262 -0.1261044 185.75405509 -0.12199741 192.04397583 -0.10325813 C194.34161003 -0.0995919 196.63926708 -0.10262274 198.93688011 -0.11314392 C218.39139153 -0.19537208 237.47493846 1.0397622 252.36987305 15.11889648 C263.05839703 26.74117628 266.60017447 40.89101287 266.47143555 56.40405273 C265.5718577 71.37559839 260.30046376 85.13183987 249.34643555 95.59155273 C234.84552122 107.78495138 218.34693282 108.8664737 200.28393555 109.09155273 C198.54628208 109.12486602 196.80865098 109.15936748 195.07104492 109.19506836 C184.27926523 109.39825076 173.48750888 109.42252679 162.6940918 109.41821289 C161.99203664 109.41804629 161.28998149 109.41787969 160.56665194 109.41770804 C132.47034765 109.41006452 104.37422164 109.2982831 76.27825451 109.16833782 C66.44169823 109.12314925 56.60518184 109.08369224 46.76855469 109.05761719 C38.08728438 109.03459656 29.4061267 109.0012044 20.72494584 108.95535117 C16.1598319 108.93157567 11.59482785 108.91274193 7.02965355 108.90643883 C2.75526774 108.9003649 -1.51883081 108.8802829 -5.79310989 108.84977722 C-7.35064508 108.84105127 -8.90821784 108.837263 -10.46577644 108.83904457 C-27.33879881 108.85224446 -42.90190654 105.6829227 -55.49731445 93.65795898 C-67.6194502 80.20705067 -70.28552069 64.00186269 -69.66040039 46.4753418 C-68.83535351 33.51293865 -62.85668522 21.45900569 -53.4230957 12.66186523 C-37.31131373 0.09424043 -19.4775264 -0.04247328 0 0 Z " fill="#F16829" transform="translate(3019.528564453125,281.595947265625)"/>
<path d="M0 0 C0.98614072 -0.00367669 1.97228144 -0.00735338 2.98830521 -0.01114148 C6.29047742 -0.0221483 9.59261813 -0.02601711 12.89480591 -0.02983093 C15.26378987 -0.03609798 17.63277285 -0.042745 20.00175476 -0.04974365 C27.10951218 -0.06894724 34.21727014 -0.07956948 41.32504624 -0.08847144 C44.67916307 -0.09286268 48.03327835 -0.09822739 51.38739395 -0.10346031 C62.54976257 -0.12046969 73.71213023 -0.13496064 84.87450981 -0.14220905 C87.7681567 -0.14411869 90.66180358 -0.14603906 93.55545044 -0.147995 C94.27457985 -0.14847874 94.99370927 -0.14896248 95.73463048 -0.14946087 C107.36647028 -0.15774921 118.99820685 -0.18306713 130.63000165 -0.21557567 C142.5948422 -0.24874 154.55963046 -0.26666633 166.52451718 -0.26985329 C173.23309016 -0.27200998 179.94148973 -0.28108424 186.6500206 -0.30631447 C192.96856145 -0.32969387 199.28683281 -0.33378871 205.60540581 -0.32355309 C207.91433168 -0.32305997 210.22327127 -0.32931354 212.53215599 -0.34310913 C232.23634158 -0.45417737 249.87903841 0.94912452 265.41091919 14.58467102 C276.13915114 26.12088696 279.69160716 41.21602447 279.40701294 56.53388977 C278.34290994 72.15762424 272.84464785 85.53061758 261.16091919 96.14717102 C249.97925458 104.77775956 238.21257013 108.17611679 224.29373169 108.46357727 C222.98866165 108.49474892 222.98866165 108.49474892 221.65722656 108.52655029 C219.8030363 108.56974694 217.94879497 108.61079706 216.09451294 108.64985657 C213.38470406 108.7075672 210.67519667 108.7734144 207.96560669 108.8405304 C197.27127721 109.089286 186.58115655 109.17512873 175.88406372 109.16572571 C174.49190903 109.16502304 173.09975434 109.16433592 171.70759964 109.16366291 C144.35782353 109.14582606 117.00817965 109.03704126 89.65871811 108.91145611 C79.75256104 108.86627759 69.84644342 108.82682164 59.94021606 108.80073547 C51.20145472 108.77771519 42.46280526 108.74432152 33.72413278 108.69846946 C29.12770489 108.67468976 24.53138623 108.65585884 19.93489838 108.64955711 C15.63015803 108.64348334 11.32570294 108.62340181 7.02106857 108.59289551 C5.4522462 108.58416868 3.8833865 108.58038147 2.31454086 108.58216286 C-14.66449726 108.5953487 -29.3651525 105.42125953 -42.21408081 93.58467102 C-53.11648035 81.83135249 -57.71126087 65.84943506 -57.11642456 49.97920227 C-55.72566363 35.77777021 -51.83244551 22.72267051 -40.98751831 12.85420227 C-28.93943884 3.28145549 -15.13411438 -0.00304235 0 0 Z " fill="#F16829" transform="translate(2656.839080810547,281.8528289794922)"/>
<path d="M0 0 C2.37001872 -0.00571007 4.7400347 -0.01267679 7.11004639 -0.02079773 C13.51721129 -0.03867484 19.92423883 -0.03757084 26.33142114 -0.03185534 C30.3416383 -0.02878214 34.35183608 -0.03176405 38.36205101 -0.03633308 C39.03008286 -0.03708151 39.6981147 -0.03782993 40.38638994 -0.03860103 C41.7439893 -0.04013269 43.10158866 -0.04167103 44.45918801 -0.043216 C57.15988892 -0.05690998 69.86052805 -0.05152551 82.56122752 -0.04003078 C94.1473687 -0.03010426 105.73335004 -0.04303451 117.31946657 -0.06696498 C129.2529029 -0.09142465 141.18626501 -0.10094688 153.11972588 -0.09431225 C159.8047015 -0.09083489 166.48952833 -0.09329377 173.17449379 -0.11056328 C179.4644262 -0.1261044 185.75405509 -0.12199741 192.04397583 -0.10325813 C194.34161003 -0.0995919 196.63926708 -0.10262274 198.93688011 -0.11314392 C218.39139153 -0.19537208 237.47493846 1.0397622 252.36987305 15.11889648 C263.05839703 26.74117628 266.60017447 40.89101287 266.47143555 56.40405273 C265.5718577 71.37559839 260.30046376 85.13183987 249.34643555 95.59155273 C234.38594589 108.17139496 217.28207817 108.88939231 198.68139648 109.0925293 C196.54295621 109.12544683 194.40452719 109.15910301 192.26610947 109.19345474 C170.91809255 109.51164427 149.56925507 109.49978643 128.21967411 109.40231228 C125.04803148 109.38814166 121.87638617 109.37561227 118.7047348 109.36356354 C107.58380135 109.32112503 96.46291872 109.2721351 85.34204102 109.21704102 C75.04846428 109.16624336 64.75490976 109.13130876 54.46124864 109.10310721 C45.52337993 109.07787186 36.58560308 109.04129314 27.64781356 108.99602151 C22.35075518 108.96940278 17.05377787 108.94730982 11.75666046 108.93700409 C6.80822359 108.92703437 1.86005227 108.90289357 -3.08827019 108.8680706 C-4.89253759 108.85774172 -6.69684173 108.85236165 -8.50113869 108.85250282 C-26.05655658 108.84826135 -42.23263506 106.32188297 -55.49731445 93.65795898 C-67.6194502 80.20705067 -70.28552069 64.00186269 -69.66040039 46.4753418 C-68.83535351 33.51293865 -62.85668522 21.45900569 -53.4230957 12.66186523 C-37.31131373 0.09424043 -19.4775264 -0.04247328 0 0 Z " fill="#F16829" transform="translate(3019.528564453125,3.595947265625)"/>
<path d="M0 0 C0.98614072 -0.00367669 1.97228144 -0.00735338 2.98830521 -0.01114148 C6.29047742 -0.0221483 9.59261813 -0.02601711 12.89480591 -0.02983093 C15.26378987 -0.03609798 17.63277285 -0.042745 20.00175476 -0.04974365 C27.10951218 -0.06894724 34.21727014 -0.07956948 41.32504624 -0.08847144 C44.67916307 -0.09286268 48.03327835 -0.09822739 51.38739395 -0.10346031 C62.54976257 -0.12046969 73.71213023 -0.13496064 84.87450981 -0.14220905 C87.7681567 -0.14411869 90.66180358 -0.14603906 93.55545044 -0.147995 C94.27457985 -0.14847874 94.99370927 -0.14896248 95.73463048 -0.14946087 C107.36647028 -0.15774921 118.99820685 -0.18306713 130.63000165 -0.21557567 C142.5948422 -0.24874 154.55963046 -0.26666633 166.52451718 -0.26985329 C173.23309016 -0.27200998 179.94148973 -0.28108424 186.6500206 -0.30631447 C192.96856145 -0.32969387 199.28683281 -0.33378871 205.60540581 -0.32355309 C207.91433168 -0.32305997 210.22327127 -0.32931354 212.53215599 -0.34310913 C232.23634158 -0.45417737 249.87903841 0.94912452 265.41091919 14.58467102 C276.13915114 26.12088696 279.69160716 41.21602447 279.40701294 56.53388977 C278.34230897 72.16644799 272.83968484 85.51838903 261.16091919 96.14717102 C250.07089961 104.82269685 237.68096977 108.19841916 223.83761597 108.46412659 C222.90901591 108.48500635 221.98041585 108.50588611 221.0236764 108.52739859 C217.95199842 108.59408388 214.8802406 108.65301574 211.80838013 108.71064758 C210.74296604 108.73177376 209.67755195 108.75289994 208.57985258 108.77466631 C186.02139198 109.2162225 163.47083644 109.2484387 140.90915775 109.14543056 C137.73751512 109.13125994 134.56586981 109.11873056 131.39421844 109.10668182 C120.27328499 109.06424332 109.15240236 109.01525338 98.03152466 108.9601593 C87.73794792 108.90936164 77.4443934 108.87442704 67.15073228 108.8462255 C58.21286358 108.82099015 49.27508672 108.78441143 40.3372972 108.7391398 C35.04023882 108.71252107 29.74326151 108.6904281 24.4461441 108.68012238 C19.49770723 108.67015266 14.54953591 108.64601185 9.60121346 108.61118889 C7.79694606 108.60086001 5.99264191 108.59547994 4.18834496 108.59562111 C-13.41891624 108.59136711 -28.71189912 106.02304445 -42.21408081 93.58467102 C-53.11648035 81.83135249 -57.71126087 65.84943506 -57.11642456 49.97920227 C-55.72566363 35.77777021 -51.83244551 22.72267051 -40.98751831 12.85420227 C-28.93943884 3.28145549 -15.13411438 -0.00304235 0 0 Z " fill="#F16829" transform="translate(2656.839080810547,3.8528289794921875)"/>
</svg>
